<svg xmlns="http://www.w3.org/2000/svg" width="16" height="16" viewBox="0 0 16 16"><path d="M12.212 3.02a1.75 1.75 0 0 0-2.478.003l-5.83 5.83a3.007 3.007 0 0 0-.88 2.127c0 .795.315 1.551.88 2.116.567.567 1.333.89 2.126.89.541 0 1.066-.15 1.526-.427.355-.215.828-.225 1.122.068.292.293.297.773-.039 1.014a4.499 4.499 0 0 1-2.609.845c-1.2 0-2.345-.487-3.187-1.33a4.493 4.493 0 0 1 0-6.363l5.83-5.83a3.253 3.253 0 1 1 4.6 4.598L7.439 12.39c-.375.377-.884.59-1.416.593a1.989 1.989 0 0 1-1.412-.593 1.98 1.98 0 0 1-.589-1.414 1.995 1.995 0 0 1 .589-1.414l5.48-5.48a.75.75 0 0 1 1.06 1.06l-5.48 5.48a.503.503 0 0 0-.15.354.483.483 0 0 0 .15.353c.046.048.1.086.161.112.06.027.125.041.191.042a.514.514 0 0 0 .356-.154l5.833-5.827a1.754 1.754 0 0 0 0-2.482Z"/><path d="M13 10.25a.75.75 0 0 0-1.5 0v1.25h-1.25a.75.75 0 0 0 0 1.5h1.25v1.25a.75.75 0 0 0 1.5 0V13h1.25a.75.75 0 0 0 0-1.5H13v-1.25Z"/></svg>