<svg xmlns="http://www.w3.org/2000/svg" width="16" height="16" viewBox="0 0 16 16"><path d="M1.163 3.11a.68.68 0 0 1-.964 0A.7.7 0 0 1 0 2.626v-.001a.7.7 0 0 1 .199-.485L2.126.201a.676.676 0 0 1 .963 0 .69.69 0 0 1 0 .97ZM13.874.201 15.8 2.14a.69.69 0 0 1 0 .97.677.677 0 0 1-.963 0l-1.926-1.939a.69.69 0 0 1 0-.97.68.68 0 0 1 .963 0M8.199 4.544c.128.128.2.303.2.485v2.735l1.841.743a.69.69 0 0 1 .006 1.254.68.68 0 0 1-.511.018l-2.27-.914a.68.68 0 0 1-.428-.636v-3.2a.7.7 0 0 1 .199-.485.68.68 0 0 1 .963 0"/><path d="M5.035 14.702a.7.7 0 0 1-.13.183l-.908.914a.677.677 0 0 1-.963 0 .69.69 0 0 1 0-.97l.796-.801A7.34 7.34 0 0 1 .681 8c0-1.94.765-3.8 2.128-5.172A7.24 7.24 0 0 1 7.945.686c1.926 0 3.774.77 5.136 2.142A7.34 7.34 0 0 1 15.209 8a7.34 7.34 0 0 1-3.084 5.982l.841.847a.69.69 0 0 1 0 .97.677.677 0 0 1-.963 0l-.908-.914a.7.7 0 0 1-.148-.225 7.22 7.22 0 0 1-5.912.042M3.772 3.798A5.96 5.96 0 0 0 2.043 8c0 1.576.622 3.088 1.729 4.202a5.88 5.88 0 0 0 4.173 1.741 5.88 5.88 0 0 0 4.173-1.741A5.96 5.96 0 0 0 13.847 8a5.96 5.96 0 0 0-1.729-4.202 5.88 5.88 0 0 0-4.173-1.741 5.88 5.88 0 0 0-4.173 1.741"/></svg>