<svg xmlns="http://www.w3.org/2000/svg" width="24" height="24" viewBox="0 0 24 24"><path d="M16.542 3.448a2.57 2.57 0 0 1 1.822.759 2.605 2.605 0 0 1 0 3.667L9.75 16.541a1.06 1.06 0 0 1-.748.321c-.267 0-.53-.11-.736-.313l-.005-.006-.014-.024a1.3 1.3 0 0 1-.137-.554c.002-.284.115-.556.315-.757l7.62-7.667a.72.72 0 0 0 .201-.693.7.7 0 0 0-.507-.511.7.7 0 0 0-.688.204l-7.62 7.667a2.5 2.5 0 0 0-.727 1.757c.002.305.055.606.158.892.086.242.219.5.403.685a2.46 2.46 0 0 0 1.737.734 2.46 2.46 0 0 0 1.741-.734l8.615-8.668a4 4 0 0 0 1.056-1.799 4.02 4.02 0 0 0-1.023-3.901 3.97 3.97 0 0 0-3.877-1.029 3.97 3.97 0 0 0-1.788 1.062l-9.111 9.168A5.67 5.67 0 0 0 3 16.366a5.67 5.67 0 0 0 1.647 3.977A5.6 5.6 0 0 0 8.6 22a5.6 5.6 0 0 0 3.966-1.625l1.557-1.568a.707.707 0 0 0-.5-1.198.7.7 0 0 0-.494.199l-1.557 1.567a4.203 4.203 0 0 1-5.964 0 4.26 4.26 0 0 1-1.235-3c0-1.126.444-2.205 1.235-3.001l9.112-9.167a2.57 2.57 0 0 1 1.822-.759"/><path d="M18.2 13.7a.7.7 0 1 0-1.4 0v2.1h-2.1a.7.7 0 1 0 0 1.4h2.1v2.1a.7.7 0 1 0 1.4 0v-2.1h2.1a.7.7 0 1 0 0-1.4h-2.1z"/></svg>