<svg xmlns="http://www.w3.org/2000/svg" width="24" height="24" viewBox="0 0 24 24"><path d="M8.5 12.75a2.75 2.75 0 0 1 2.75 2.75v3a2.75 2.75 0 0 1-2.75 2.75h-3a2.75 2.75 0 0 1-2.75-2.75v-3a2.75 2.75 0 0 1 2.75-2.75Zm-3 1.5c-.69 0-1.25.56-1.25 1.25v3c0 .69.56 1.25 1.25 1.25h3c.69 0 1.25-.56 1.25-1.25v-3c0-.69-.56-1.25-1.25-1.25Zm13-1.5a2.75 2.75 0 0 1 2.75 2.75v3a2.75 2.75 0 0 1-2.75 2.75h-3a2.75 2.75 0 0 1-2.75-2.75v-3a2.75 2.75 0 0 1 2.75-2.75Zm-3 1.5c-.69 0-1.25.56-1.25 1.25v3c0 .69.56 1.25 1.25 1.25h3c.69 0 1.25-.56 1.25-1.25v-3c0-.69-.56-1.25-1.25-1.25Zm-7-11.5a2.75 2.75 0 0 1 2.75 2.75v3a2.75 2.75 0 0 1-2.75 2.75h-3A2.75 2.75 0 0 1 2.75 8.5v-3A2.75 2.75 0 0 1 5.5 2.75Zm-3 1.5c-.69 0-1.25.56-1.25 1.25v3c0 .69.56 1.25 1.25 1.25h3c.69 0 1.25-.56 1.25-1.25v-3c0-.69-.56-1.25-1.25-1.25ZM17 4a.6.6 0 0 1 .6.6v1.8h1.8a.6.6 0 0 1 0 1.2h-1.8v1.8a.6.6 0 0 1-1.2 0V7.6h-1.8a.6.6 0 0 1 0-1.2h1.8V4.6A.6.6 0 0 1 17 4Z"/></svg>