<svg xmlns="http://www.w3.org/2000/svg" width="16" height="16" viewBox="0 0 16 16"><path d="M3.25 7.5A1.75 1.75 0 0 1 1.5 5.75v-2.5c0-.967.783-1.75 1.75-1.75h2.5c.966 0 1.75.783 1.75 1.75v2.5A1.75 1.75 0 0 1 5.75 7.5ZM5.75 6A.25.25 0 0 0 6 5.75v-2.5A.25.25 0 0 0 5.75 3h-2.5a.25.25 0 0 0-.25.25v2.5c0 .138.112.25.25.25Zm5.75 1a.682.682 0 0 1-.682-.682V5.182H9.682a.682.682 0 1 1 0-1.364h1.136V2.682a.682.682 0 0 1 1.364 0v1.136h1.136a.682.682 0 1 1 0 1.364h-1.136v1.136A.682.682 0 0 1 11.5 7Zm-1.25 7.5a1.75 1.75 0 0 1-1.75-1.75v-2.5c0-.967.783-1.75 1.75-1.75h2.5c.967 0 1.75.783 1.75 1.75v2.5a1.75 1.75 0 0 1-1.75 1.75Zm2.5-1.5a.25.25 0 0 0 .25-.25v-2.5a.25.25 0 0 0-.25-.25h-2.5a.25.25 0 0 0-.25.25v2.5c0 .138.112.25.25.25Zm-9.5 1.5a1.75 1.75 0 0 1-1.75-1.75v-2.5c0-.967.783-1.75 1.75-1.75h2.5c.966 0 1.75.783 1.75 1.75v2.5a1.75 1.75 0 0 1-1.75 1.75Zm2.5-1.5a.25.25 0 0 0 .25-.25v-2.5a.25.25 0 0 0-.25-.25h-2.5a.25.25 0 0 0-.25.25v2.5c0 .138.112.25.25.25Z"/></svg>