<svg xmlns="http://www.w3.org/2000/svg" width="24" height="24" viewBox="0 0 24 24"><path d="M12 6.734a.751.751 0 0 1 .759.742l.011 2v2.846l2.661 1.537a.751.751 0 0 1-.75 1.299l-3.032-1.75a.748.748 0 0 1-.312-.357l-.016-.042c-.009-.025-.019-.05-.025-.075a.697.697 0 0 1-.026-.183l-.011-5.259A.75.75 0 0 1 12 6.734Z"/><path d="M12 2.503c5.523 0 10 4.477 10 10a9.96 9.96 0 0 1-2.535 6.654l1.315 1.316a.749.749 0 1 1-1.06 1.06l-1.335-1.334C16.833 21.488 14.5 22.476 12 22.476s-4.834-.988-6.386-2.277L4.28 21.533a.749.749 0 1 1-1.06-1.06l1.315-1.316A9.96 9.96 0 0 1 2 12.503c0-5.523 4.477-10 10-10Zm0 1.473a8.5 8.5 0 1 0 0 17 8.5 8.5 0 0 0 0-17ZM6.681 1.101a.75.75 0 1 1 .75 1.298l-3.032 1.75a.748.748 0 1 1-.75-1.298l3.032-1.75Zm9.694.274a.75.75 0 0 1 1.024-.274l3.032 1.75a.75.75 0 0 1-.75 1.298l-3.032-1.75a.75.75 0 0 1-.274-1.024Z"/></svg>