<svg xmlns="http://www.w3.org/2000/svg" width="16" height="16" viewBox="0 0 16 16"><path d="M4.75 0a.75.75 0 0 1 .75.75V2h5V.75a.75.75 0 0 1 1.5 0V2h1.25c.967 0 1.75.783 1.75 1.75v10.5A1.75 1.75 0 0 1 13.25 16H10v-1.5h3.25a.25.25 0 0 0 .25-.25V7.5h-11V10H1V3.75C1 2.783 1.783 2 2.75 2H4V.75A.75.75 0 0 1 4.75 0m8.5 3.5H2.75a.25.25 0 0 0-.25.25V6h11V3.75a.25.25 0 0 0-.25-.25m-8.2 11.542a.7.7 0 0 1 .163-.224l1.226-1.13H1.75a.78.78 0 0 1-.53-.203.66.66 0 0 1-.22-.489c0-.184.079-.36.22-.49a.8.8 0 0 1 .53-.202h4.688l-1.225-1.131a.67.67 0 0 1-.211-.487.67.67 0 0 1 .22-.483.8.8 0 0 1 .525-.203.78.78 0 0 1 .527.195l2.506 2.311q.105.097.163.224a.65.65 0 0 1 0 .53.7.7 0 0 1-.163.225l-2.506 2.312a.8.8 0 0 1-1.061 0 .7.7 0 0 1-.163-.224.65.65 0 0 1 0-.531"/></svg>