<svg xmlns="http://www.w3.org/2000/svg" width="16" height="16" viewBox="0 0 16 16"><path d="M2.343 13.657A8 8 0 1 1 13.658 2.343 8 8 0 0 1 2.343 13.657m8.281.678a6.85 6.85 0 0 0 3.711-3.711 6.85 6.85 0 0 0 0-5.248 6.85 6.85 0 0 0-3.711-3.711 6.857 6.857 0 1 0 0 12.67"/><path d="m7.331 8.046-2.098-2.1a.335.335 0 0 1 .005-.475l.399-.399a.33.33 0 0 1 .475-.005l2.53 2.531.022.024.151.152a.324.324 0 0 1 0 .455l-2.711 2.712a.323.323 0 0 1-.455 0l-.378-.379a.325.325 0 0 1 0-.456Zm2.903 0-2.098-2.1a.335.335 0 0 1 .005-.475l.398-.399a.333.333 0 0 1 .476-.005l2.53 2.531.022.024.151.152a.325.325 0 0 1 0 .455l-2.711 2.712a.323.323 0 0 1-.455 0l-.378-.379a.325.325 0 0 1 0-.456Z"/></svg>