<svg xmlns="http://www.w3.org/2000/svg" width="16" height="16" viewBox="0 0 16 16"><path d="m10.373 2.078 3.411 3.397L9.72 9.512a1.622 1.622 0 0 0 2.552.085 78 78 0 0 1 2.153-2.175h.001q.437-.429.87-.86a1.53 1.53 0 0 0 .517-1.146 1.53 1.53 0 0 0-.517-1.147l-1.654-1.647-.852-.852q-.64-.644-1.285-1.283A1.473 1.473 0 0 0 9.498.318q-.767.723-1.455 1.523L9.35 3.137Zm-4.689 11.85-3.411-3.397 4.075-4.054c-.705-.827-1.682-.929-2.37-.26a109 109 0 0 0-3.314 3.34 1.483 1.483 0 0 0 0 2.066 324 324 0 0 0 3.979 3.963 1.455 1.455 0 0 0 1.95.074 14 14 0 0 0 1.018-1.021q.21-.226.42-.445L6.69 12.858Z"/><path d="M9.509 6.313 5.462 2.288 2.051 5.685l1.086 1.019L1.869 7.96A19 19 0 0 1 .306 6.505a1.416 1.416 0 0 1 .125-1.896A392 392 0 0 1 4.41.646a1.505 1.505 0 0 1 2.098 0q1.649 1.653 3.291 3.306a1.52 1.52 0 0 1 .418 1.249 1.5 1.5 0 0 1-.228.635 1.5 1.5 0 0 1-.48.477m1.12 7.428-4.07-4.048c-.2.127-.368.298-.49.501a1.53 1.53 0 0 0-.118 1.357c.087.22.223.417.398.576l3.109 3.097a1.52 1.52 0 0 0 1.761.377c.196-.088.371-.216.513-.377l1.779-1.772.004-.004c.676-.666 1.351-1.333 2.015-2.006a1.444 1.444 0 0 0 .176-1.936q-.71-.75-1.495-1.421L12.96 9.314q.209.194.408.396.22.225.456.442c.177.158.165.26 0 .424-1.012.996-2.018 1.999-3.024 3.001Z"/><path d="m6.252 3.499 3.024 3.007-1.318 1.307-.069-.071c-.149-.154-.318-.329-.5-.495L6.121 5.979a1.55 1.55 0 0 1-.354-1.956 1.56 1.56 0 0 1 .485-.524m2.346 5.25-.544-.528-1.268 1.234 3.013 2.995a1.52 1.52 0 0 0 .567-1.712 1.5 1.5 0 0 0-.322-.553 52 52 0 0 0-1.446-1.436m-5.08.984 3.007-2.99 1.302 1.274-.182.193-1.706 1.698a1.56 1.56 0 0 1-1.253.501 1.55 1.55 0 0 1-1.168-.676m6.031-.521 2.956-2.939a1.51 1.51 0 0 0-1.792-.56 1.5 1.5 0 0 0-.556.374c-.396.391-.797.792-1.19 1.184l-.572.571q-.05.051-.097.107Z"/></svg>