<svg xmlns="http://www.w3.org/2000/svg" width="16" height="16" viewBox="0 0 16 16"><path d="m7.775 3.275 1.25-1.25a3.503 3.503 0 0 1 4.95 0 3.5 3.5 0 0 1 0 4.95l-2.5 2.5A3.5 3.5 0 0 1 9 10.5a3.5 3.5 0 0 1-2.475-1.025.753.753 0 0 1 .019-1.041.753.753 0 0 1 1.041-.019A2 2 0 0 0 9 9.002a2 2 0 0 0 1.415-.587l2.5-2.5a2.005 2.005 0 0 0 .434-2.181 2.02 2.02 0 0 0-1.083-1.083 2 2 0 0 0-1.532 0 2 2 0 0 0-.649.434l-1.25 1.25A.747.747 0 0 1 7.574 3.8a.75.75 0 0 1 .201-.525m-4.69 9.64a2 2 0 0 0 1.415.587 2 2 0 0 0 1.415-.587l1.25-1.25a.754.754 0 0 1 1.042.019.747.747 0 0 1 .018 1.041l-1.25 1.25a3.497 3.497 0 0 1-4.95 0 3.5 3.5 0 0 1 0-4.95l2.5-2.5a3.5 3.5 0 0 1 4.95 0 .75.75 0 0 1-1.06 1.06 2.005 2.005 0 0 0-2.181-.434 2 2 0 0 0-.649.434l-2.5 2.5a2.005 2.005 0 0 0-.434 2.181c.101.243.248.463.434.649M12.75 10a.75.75 0 0 1 .75.75V12h1.25a.75.75 0 0 1 0 1.5H13.5v1.25a.75.75 0 0 1-1.5 0V13.5h-1.25a.75.75 0 0 1 0-1.5H12v-1.25a.75.75 0 0 1 .75-.75"/></svg>