<svg xmlns="http://www.w3.org/2000/svg" width="16" height="16" viewBox="0 0 16 16"><path d="M7.152.351C7.246.126 7.48 0 7.748 0c.128 0 .264.029.397.09.409.188.628.611.49.944L7.478 6.657c-.139.333-.583.45-.993.262-.409-.189-.628-.611-.489-.944ZM5.263 7.069l3.244 3.405a.46.46 0 0 1 .122.395.32.32 0 0 1-.256.261l-2.175.426.258.27c.368.387.406.976.083 1.315l-2.504 2.628c-.323.339-.883.3-1.252-.087l-2.48-2.604A1.08 1.08 0 0 1 0 12.341v-.001c0-.215.072-.422.22-.576l2.504-2.629c.322-.339.883-.3 1.252.088l.257.27.406-2.283a.325.325 0 0 1 .248-.269c.13-.029.273.02.376.128m10.733 1.126c-.041.467-.353.82-.698.787l-5.557.905c-.344-.032-.591-.438-.55-.905.04-.468.352-.82.697-.787l5.557-.906c.317.03.552.377.555.797v.018q0 .045-.004.091"/></svg>