<svg xmlns="http://www.w3.org/2000/svg" width="16" height="16" viewBox="0 0 16 16"><path d="M5.138 4.513a3.5 3.5 0 0 1 3.051 1.318 3.5 3.5 0 0 1-.35 4.718 5.5 5.5 0 0 1 3.034 4.084.75.75 0 1 1-1.482.235 4 4 0 0 0-3.949-3.364 4 4 0 0 0-3.951 3.364.76.76 0 0 1-.3.489.74.74 0 0 1-1.048-.167.74.74 0 0 1-.143-.428v-.027a1 1 0 0 1 .009-.103 5.5 5.5 0 0 1 3.034-4.082A3.5 3.5 0 0 1 1.942 8a3.5 3.5 0 0 1 1.577-2.925 3.5 3.5 0 0 1 1.619-.562M10.942 6.5a2.998 2.998 0 0 1 2.219 5.018 5 5 0 0 1 2.56 3.012.76.76 0 0 1-.053.574.748.748 0 0 1-1.381-.134 3.51 3.51 0 0 0-2.522-2.372.75.75 0 0 1-.573-.73v-.352a.75.75 0 0 1 .416-.672A1.5 1.5 0 0 0 10.942 8a.75.75 0 0 1 0-1.5m-5.5-.5a1.999 1.999 0 1 0 0 3.998 1.999 1.999 0 0 0 0-3.998M15.104.5a.731.731 0 0 1 .517 1.248l-2.713 2.654a.73.73 0 0 1-1.034 0l-1.678-1.678a.736.736 0 0 1 .018-1.016.736.736 0 0 1 1.017-.019l1.161 1.163L14.587.714A.73.73 0 0 1 15.104.5"/></svg>