<svg xmlns="http://www.w3.org/2000/svg" width="24" height="24" viewBox="0 0 24 24"><path d="M11 3c.292 0 .579.082.833.238l7.312 4.494c.259.16.475.391.626.671.15.279.229.597.229.921v7.728c0 .486-.178.951-.494 1.294a1.62 1.62 0 0 1-1.194.536H3.688c-.448 0-.877-.192-1.194-.536A1.9 1.9 0 0 1 2 17.052V9.325c0-.659.326-1.268.855-1.593l7.312-4.494A1.6 1.6 0 0 1 11 3m0 1.22a.53.53 0 0 0-.278.079L3.736 8.594l5.557 3.444A2.67 2.67 0 0 1 11 11.411c.617 0 1.217.22 1.708.627l5.557-3.445-6.987-4.294A.53.53 0 0 0 11 4.22m1.042 8.803A1.6 1.6 0 0 0 11 12.632c-.378 0-.745.137-1.043.391l-5.445 4.639h12.975Zm1.621-.172 4.997 4.259a.6.6 0 0 1 .157.211.65.65 0 0 0 .058-.269V9.621ZM3.125 9.621v7.431q.001.146.057.269a.6.6 0 0 1 .157-.211l4.998-4.259Z"/><path d="M21.145 9.85c.26.159.475.391.626.671.15.279.229.597.229.921v7.728c0 .485-.178.951-.494 1.294a1.63 1.63 0 0 1-1.194.536H5.688c-.448 0-.877-.193-1.194-.536S4 19.78 4 19.438h1.182c.064.114.256.342.506.342h14.624c.25 0 .441-.227.505-.341a.7.7 0 0 0 .058-.269v-7.431l-.058-1.889z"/></svg>