<svg width="24" height="24" viewBox="0 0 24 24" fill="none" xmlns="http://www.w3.org/2000/svg">
<path fill-rule="evenodd" clip-rule="evenodd" d="M10.25 0C9.83579 0 9.5 0.335786 9.5 0.75C9.5 1.16421 9.83579 1.5 10.25 1.5H11.25V2.7777C9.11504 2.936 7.16664 3.76462 5.61451 5.05385L4.28033 3.71967C3.98744 3.42678 3.51256 3.42678 3.21967 3.71967C2.92678 4.01256 2.92678 4.48744 3.21967 4.78033L4.53516 6.09582C2.95832 7.8635 2 10.1948 2 12.75C2 18.2728 6.47715 22.75 12 22.75C17.5228 22.75 22 18.2728 22 12.75C22 10.1948 21.0417 7.86351 19.4648 6.09582L20.7803 4.78033C21.0732 4.48744 21.0732 4.01256 20.7803 3.71967C20.4874 3.42678 20.0126 3.42678 19.7197 3.71967L18.3855 5.05385C16.8334 3.76462 14.885 2.936 12.75 2.7777V1.5H13.75C14.1642 1.5 14.5 1.16421 14.5 0.75C14.5 0.335786 14.1642 0 13.75 0H10.25ZM12 21.25C16.6944 21.25 20.5 17.4444 20.5 12.75C20.5 8.05558 16.6944 4.25 12 4.25C7.30558 4.25 3.5 8.05558 3.5 12.75C3.5 17.4444 7.30558 21.25 12 21.25Z" fill="#636C76"/>
<path d="M9.15625 10.8121C9.15625 10.2081 9.64594 9.71838 10.25 9.71838H14.0625C14.6666 9.71838 15.1562 10.2081 15.1562 10.8121V14.6246C15.1562 15.2287 14.6666 15.7184 14.0625 15.7184H10.25C9.64594 15.7184 9.15625 15.2287 9.15625 14.6246V10.8121Z" fill="#636C76"/>
</svg>
