<svg xmlns="http://www.w3.org/2000/svg" width="24" height="24" viewBox="0 0 24 24"><path d="M10.25 0h3.5a.75.75 0 0 1 0 1.5h-1v1.278a9.952 9.952 0 0 1 5.635 2.276L19.72 3.72a.749.749 0 1 1 1.06 1.06l-1.315 1.316A9.962 9.962 0 0 1 22 12.75c0 5.523-4.477 10-10 10s-10-4.477-10-10c0-2.555.958-4.886 2.535-6.654L3.22 4.78a.749.749 0 1 1 1.06-1.06l1.335 1.334a9.952 9.952 0 0 1 5.635-2.276V1.5h-1a.75.75 0 0 1 0-1.5ZM12 21.25a8.5 8.5 0 1 0-.001-17.001A8.5 8.5 0 0 0 12 21.25Z"/><path d="M9.156 10.812c0-.604.49-1.094 1.094-1.094h3.812c.605 0 1.094.49 1.094 1.094v3.813c0 .604-.489 1.093-1.094 1.093H10.25a1.093 1.093 0 0 1-1.094-1.093v-3.813Z"/></svg>