<svg xmlns="http://www.w3.org/2000/svg" width="24" height="24" viewBox="0 0 24 24"><path d="M10.25 0h3.5a.75.75 0 0 1 0 1.5h-1v1.278a9.952 9.952 0 0 1 5.635 2.276L19.72 3.72a.749.749 0 1 1 1.06 1.06l-1.315 1.316A9.962 9.962 0 0 1 22 12.75c0 5.523-4.477 10-10 10s-10-4.477-10-10c0-2.555.958-4.886 2.535-6.654L3.22 4.78a.749.749 0 1 1 1.06-1.06l1.335 1.334a9.952 9.952 0 0 1 5.635-2.276V1.5h-1a.75.75 0 0 1 0-1.5ZM12 21.25a8.5 8.5 0 1 0-.001-17.001A8.5 8.5 0 0 0 12 21.25Z"/><path d="M10 15.5v-5.168a.5.5 0 0 1 .77-.421l4.576 2.584a.5.5 0 0 1 0 .841l-4.576 2.585A.5.5 0 0 1 10 15.5Z"/></svg>