<svg xmlns="http://www.w3.org/2000/svg" width="16" height="16" viewBox="0 0 16 16"><path d="M2.22 2.221A.74.74 0 0 1 2.75 2h12.5a.754.754 0 0 1 0 1.508H2.75a.756.756 0 0 1-.53-1.287m-2 6.03a.75.75 0 0 1 .53-.221h3.5a.754.754 0 0 1 0 1.508H.75a.754.754 0 0 1-.53-1.287m3.53-3.236a.754.754 0 0 0 0 1.508h2.5a.754.754 0 0 0 0-1.508zm2.913 2.652a2.41 2.41 0 0 1 1.91-1.261 2.39 2.39 0 0 1 2.097.911 2.427 2.427 0 0 1-.24 3.26 3.8 3.8 0 0 1 2.086 2.822.52.52 0 0 1-.429.593.513.513 0 0 1-.59-.431 2.77 2.77 0 0 0-.932-1.665 2.744 2.744 0 0 0-3.567 0 2.77 2.77 0 0 0-.932 1.665.523.523 0 0 1-.591.431.516.516 0 0 1-.428-.594 3.8 3.8 0 0 1 .699-1.667 3.8 3.8 0 0 1 1.387-1.153 2.4 2.4 0 0 1-.758-1.762c0-.401.099-.796.288-1.149m1.146.171a1.386 1.386 0 0 0 0 1.955 1.372 1.372 0 0 0 2.347-.977 1.373 1.373 0 0 0-2.347-.978m4.389.093a.52.52 0 0 1 .364-.152 2.06 2.06 0 0 1 1.887 1.234 2.09 2.09 0 0 1-.36 2.233 3.47 3.47 0 0 1 1.76 2.082.53.53 0 0 1-.164.553.53.53 0 0 1-.378.117.52.52 0 0 1-.444-.366 2.42 2.42 0 0 0-1.734-1.639.52.52 0 0 1-.395-.505v-.243a.52.52 0 0 1 .286-.464 1.034 1.034 0 0 0 .546-1.165 1.03 1.03 0 0 0-1.004-.8.516.516 0 0 1-.515-.519c0-.137.054-.269.151-.366"/></svg>