<svg xmlns="http://www.w3.org/2000/svg" width="16" height="16" viewBox="0 0 16 16"><path d="M0 1.75C0 .784.784 0 1.75 0h12.5C15.216 0 16 .784 16 1.75v12.5c0 .464-.184.909-.513 1.237A1.75 1.75 0 0 1 14.25 16H1.75c-.464 0-.909-.184-1.237-.513A1.75 1.75 0 0 1 0 14.25Zm1.75-.25a.25.25 0 0 0-.25.25v12.5c0 .138.112.25.25.25h12.5a.25.25 0 0 0 .25-.25V1.75a.25.25 0 0 0-.25-.25Z"/><path d="M.817.27c.27-.171.59-.27.933-.27h12.5a1.74 1.74 0 0 1 1.237.513A1.74 1.74 0 0 1 16 1.75v12.5c0 .464-.184.909-.513 1.237A1.75 1.75 0 0 1 14.25 16H1.75a1.76 1.76 0 0 1-1.342-.626A1.75 1.75 0 0 1 0 14.25V1.75A1.74 1.74 0 0 1 .513.513Q.652.374.817.27M14.3 1.505a.3.3 0 0 0-.05-.005H1.75a.25.25 0 0 0-.25.25v12.515a.26.26 0 0 0 .117.197.26.26 0 0 0 .121.038H14.25a.25.25 0 0 0 .25-.25V1.75a.24.24 0 0 0-.073-.177.25.25 0 0 0-.127-.068M3 5.366a1 1 0 0 1-.5-.866v-1a1 1 0 0 1 .5-.866 1 1 0 0 1 .5-.134h3a1 1 0 0 1 .866.5 1 1 0 0 1 .134.5v1a1 1 0 0 1-.376.781A1 1 0 0 1 6.5 5.5h-3a1 1 0 0 1-.5-.134m4.281 3.758A1 1 0 0 1 6.5 9.5h-3a1 1 0 0 1-.781-.376A1 1 0 0 1 2.5 8.5v-1a1 1 0 0 1 .5-.866 1 1 0 0 1 .5-.134h3a1 1 0 0 1 .781.376A1 1 0 0 1 7.5 7.5v1a1 1 0 0 1-.219.624M13 6.634a1 1 0 0 1 .5.866v1a1 1 0 0 1-1 1h-3a1 1 0 0 1-1-1v-1a1 1 0 0 1 .376-.781A1 1 0 0 1 9.5 6.5h3c.182 0 .353.049.5.134m.281-1.51a1 1 0 0 1-.781.376h-3a1 1 0 0 1-.781-.376A1 1 0 0 1 8.5 4.5v-1a1 1 0 0 1 .376-.781A1 1 0 0 1 9.5 2.5h3a1 1 0 0 1 .866.5 1 1 0 0 1 .134.5v1a1 1 0 0 1-.219.624m-6 5.752a1 1 0 0 1 .219.624v1a1 1 0 0 1-1 1h-3a1 1 0 0 1-.866-.5 1 1 0 0 1-.134-.5v-1a1 1 0 0 1 .5-.866 1 1 0 0 1 .5-.134h3c.316 0 .598.147.781.376"/></svg>