<svg xmlns="http://www.w3.org/2000/svg" width="16" height="16" viewBox="0 0 16 16"><path d="M.523 15.478A1.72 1.72 0 0 1 0 14.222V1.778Q0 1.044.523.523A1.72 1.72 0 0 1 1.778 0h12.444q.734 0 1.256.523.521.52.522 1.25v12.449q0 .734-.522 1.256a1.7 1.7 0 0 1-1.251.522H1.778a1.7 1.7 0 0 1-1.255-.522m13.699-1.256V1.778H1.778v12.444ZM12 10.667H9.556a.65.65 0 0 1-.478-.189q-.189-.189-.189-.478V6a.65.65 0 0 1 .667-.667H12q.556.002.945.39t.388.944v2.666q.001.557-.388.945a1.3 1.3 0 0 1-.945.389M7.111 6.222v3.556a.86.86 0 0 1-.256.633.87.87 0 0 1-.633.256H3.778q-.289 0-.478-.19A.65.65 0 0 1 3.111 10a.643.643 0 0 1 .667-.667h2V8.7H4.5a.647.647 0 0 1-.667-.667.65.65 0 0 1 .667-.667h1.278v-.699h-2A.643.643 0 0 1 3.111 6a.644.644 0 0 1 .667-.667h2.444a.87.87 0 0 1 .633.256q.256.255.256.633m3.111.445v2.666H12V6.667Z"/></svg>