<svg xmlns="http://www.w3.org/2000/svg" width="16" height="16" viewBox="0 0 16 16"><path d="M7 10.413a.99.99 0 0 1 .781.381c.137.173.219.394.219.634v.508c0 .185-.049.359-.134.508a1 1 0 0 1-.866.508H4.5a1 1 0 0 1-.5-.136 1.01 1.01 0 0 1-.5-.88v-.508a1.02 1.02 0 0 1 .5-.879 1 1 0 0 1 .5-.136Zm5-3.925c.182 0 .353.049.5.136a1.02 1.02 0 0 1 .5.88v3.801c0 .376-.201.705-.5.88a1 1 0 0 1-.5.136h-2a1 1 0 0 1-.624-.223A1.02 1.02 0 0 1 9 11.305V7.504a1.02 1.02 0 0 1 .376-.794A1 1 0 0 1 10 6.488ZM6.5 5.84a.99.99 0 0 1 .781.382c.137.174.219.395.219.635v1.524a1.02 1.02 0 0 1-.376.793 1 1 0 0 1-.624.222H4a1 1 0 0 1-.5-.136 1.02 1.02 0 0 1-.5-.879V6.857a1.02 1.02 0 0 1 .5-.88A1 1 0 0 1 4 5.84Z"/><path d="M7.63.099a.74.74 0 0 1 .85.077l3.001 2.539a1 1 0 0 1 .078.079h2.691a2 2 0 0 1 .349.035l.005.001a1.8 1.8 0 0 1 .576.235l.02.015a2 2 0 0 1 .151.11q.216.179.368.417l.013.02q.072.115.124.241l.012.028a1.8 1.8 0 0 1 .132.675v9.651c0 .472-.185.924-.513 1.257A1.74 1.74 0 0 1 14.25 16H1.75q-.084 0-.167-.009l-.047-.007q-.055-.007-.109-.016l-.062-.014a1 1 0 0 1-.107-.028l-.046-.014-.107-.039-.049-.021a1.6 1.6 0 0 1-.244-.131l-.045-.03a1 1 0 0 1-.081-.061q-.029-.02-.055-.041l-.005-.004a2 2 0 0 1-.218-.222l-.012-.015-.025-.035a1.4 1.4 0 0 1-.106-.154q-.024-.037-.044-.074l-.039-.076-.031-.066-.031-.077q-.017-.044-.031-.087l-.021-.065-.024-.102-.013-.062-.017-.118q-.004-.02-.006-.043A2 2 0 0 1 0 14.222V4.571a2 2 0 0 1 .017-.234q.004-.042.011-.083l.012-.062q.033-.151.09-.292l.014-.035q.053-.126.126-.242l.015-.024q.046-.07.097-.135l.006-.009q.116-.147.261-.266l.042-.031q.052-.041.107-.078l.019-.013q.102-.065.211-.116l.041-.018.01-.004a1.8 1.8 0 0 1 .508-.128q.08-.007.163-.007h2.691a1 1 0 0 1 .079-.079l3-2.539ZM1.75 4.317a.25.25 0 0 0-.25.254v9.651c0 .14.112.254.25.254h12.5c.066 0 .13-.027.177-.075a.26.26 0 0 0 .073-.179V4.571a.25.25 0 0 0-.25-.254Zm5.021-1.523h2.458L8 1.754Z"/></svg>